<?xml version="1.0" encoding="UTF-8"?>
<!DOCTYPE svg PUBLIC "-//W3C//DTD SVG 1.1//EN" "http://www.w3.org/Graphics/SVG/1.1/DTD/svg11.dtd">
<svg xmlns="http://www.w3.org/2000/svg" version="1.1" width="1024px" height="1024px" style="shape-rendering:geometricPrecision; text-rendering:geometricPrecision; image-rendering:optimizeQuality; fill-rule:evenodd; clip-rule:evenodd" xmlns:xlink="http://www.w3.org/1999/xlink">
<g><path style="opacity:1" fill="#f9f9f9" d="M 86.5,-0.5 C 369.833,-0.5 653.167,-0.5 936.5,-0.5C 985.17,8.83656 1014.17,37.8366 1023.5,86.5C 1023.5,369.833 1023.5,653.167 1023.5,936.5C 1014.17,985.163 985.17,1014.16 936.5,1023.5C 653.167,1023.5 369.833,1023.5 86.5,1023.5C 37.8301,1014.16 8.83011,985.163 -0.5,936.5C -0.5,653.167 -0.5,369.833 -0.5,86.5C 8.83011,37.8366 37.8301,8.83656 86.5,-0.5 Z"/></g>
<g><path style="opacity:1" fill="#020202" d="M 508.5,78.5 C 512.961,79.056 517.294,80.2226 521.5,82C 656.385,138.609 791.385,194.943 926.5,251C 928.487,252.319 929.654,254.152 930,256.5C 930.996,427.222 930.663,597.889 929,768.5C 926.592,770.956 923.759,772.789 920.5,774C 792.052,827.724 663.718,881.724 535.5,936C 527.526,939.436 519.359,942.269 511,944.5C 372.691,887.098 234.524,829.265 96.5,771C 94.683,769.2 93.5163,767.034 93,764.5C 92.0028,594.42 92.3361,424.42 94,254.5C 98.1257,250.518 102.959,247.685 108.5,246C 242.267,190.942 375.601,135.109 508.5,78.5 Z"/></g>
<g><path style="opacity:1" fill="#f9f9f9" d="M 509.5,100.5 C 637.73,152.97 765.73,206.136 893.5,260C 766.894,316.299 640.228,372.633 513.5,429C 510.756,428.981 508.089,428.314 505.5,427C 380.106,371.299 254.772,315.633 129.5,260C 256.47,207.296 383.137,154.129 509.5,100.5 Z"/></g>
<g><path style="opacity:1" fill="#f9f9f9" d="M 114.5,276.5 C 243.469,333.065 372.302,390.065 501,447.5C 501.833,604.501 501.667,761.501 500.5,918.5C 371.389,864.354 242.389,810.021 113.5,755.5C 113.167,595.666 113.5,435.999 114.5,276.5 Z"/></g>
<g><path style="opacity:1" fill="#f9f9f9" d="M 907.5,276.5 C 908.5,276.5 909.5,276.5 910.5,276.5C 910.667,436.167 910.5,595.834 910,755.5C 780.656,810.257 651.156,864.59 521.5,918.5C 521.167,761.499 521.5,604.499 522.5,447.5C 651.052,390.663 779.386,333.663 907.5,276.5 Z"/></g>
<g><path style="opacity:1" fill="#010101" d="M 398.5,609.5 C 399.66,597.007 399.827,584.34 399,571.5C 397.961,572.244 397.461,573.244 397.5,574.5C 376.577,628.766 355.743,683.099 335,737.5C 332.166,745.16 328.833,752.493 325,759.5C 312.031,754.404 299.364,748.737 287,742.5C 262.516,658.233 238.182,573.9 214,489.5C 214.487,519.811 214.987,550.144 215.5,580.5C 215.832,624.337 215.499,668.003 214.5,711.5C 196.845,704.59 179.345,697.257 162,689.5C 161.5,587.167 161.333,484.834 161.5,382.5C 187.426,392.88 212.926,404.213 238,416.5C 261.575,498.251 285.075,579.918 308.5,661.5C 331.834,600.832 355.168,540.165 378.5,479.5C 378.833,479.167 379.167,478.833 379.5,478.5C 403.3,489.402 427.3,499.736 451.5,509.5C 451.833,610.836 451.5,712.169 450.5,813.5C 433.248,805.972 415.915,798.638 398.5,791.5C 397.361,730.833 397.361,670.167 398.5,609.5 Z"/></g>
<g><path style="opacity:1" fill="#989898" d="M 398.5,609.5 C 398.828,597.655 398.495,585.988 397.5,574.5C 397.461,573.244 397.961,572.244 399,571.5C 399.827,584.34 399.66,597.007 398.5,609.5 Z"/></g>
<g><path style="opacity:1" fill="#666666" d="M 114.5,276.5 C 113.5,435.999 113.167,595.666 113.5,755.5C 112.167,595.666 112.167,435.666 113.5,275.5C 114.107,275.624 114.44,275.957 114.5,276.5 Z"/></g>
<g><path style="opacity:1" fill="#393939" d="M 215.5,580.5 C 216.831,624.335 216.831,668.335 215.5,712.5C 214.893,712.376 214.56,712.043 214.5,711.5C 215.499,668.003 215.832,624.337 215.5,580.5 Z"/></g>
</svg>
